:SAMPLES-PER-SECOND 30
:FULLY-SPECIFIED
:DEGREES
340
root  65.2305 38.753 8.75599 -163.645 -6.88295 170.514
RightUpLeg  -35.4384 -8.57234 -7.63466
RightLeg  15.9007 14.1859 4.14879
RightFoot  7.73614 0.228145 -1.04108
RightToes  1.33877e-009 0 -3.6325e-017
Spine  40.2017 -4.88148 9.49517
Spine1  -9.91107 -0.555423 -12.2955
HEad  -42.5441 -6.24262 1.63646
LeftShoulder1  1.35352 -1.12291 -22.9553
LeftArm  -178.134 -68.383 130.028
LeftForeArm  8.06695 3.24605 -6.1346
LeftHand  0.0588359 7.01574 6.27323
RightShoulder  -0.361711 4.39625 -14.9729
RightArm  -62.9735 62.5202 -17.9614
RightForeArm  -30.3412 -4.27577 -4.68458
RightHand  -0.0329961 3.13183 -0.683542
LeftUpLeg  -26.7203 -3.46834 -5.14881
LeftLeg  6.52887 -12.9358 -1.58664
LeftFoot  7.70141 0.164537 -1.26083
LeftToes  -1.45701e-009 4.75788e-011 -4.21586e-011
341
root  65.2274 38.7534 8.76546 -164.227 -7.28445 170.251
RightUpLeg  -34.9003 -8.84762 -8.01411
RightLeg  16.356 14.1039 4.25691
RightFoot  7.49576 0.196642 -0.874805
RightToes  1.33877e-009 0 -3.6325e-017
Spine  39.7487 -5.26928 9.67159
Spine1  -9.96823 -0.957781 -12.4708
HEad  -41.7775 -5.71387 1.64138
LeftShoulder1  1.37023 -1.0527 -23.814
LeftArm  -179.294 -69.5144 130.778
LeftForeArm  9.41709 2.41573 -6.33939
LeftHand  0.0982048 7.39971 7.44672
RightShoulder  -0.376106 4.79918 -14.9198
RightArm  -61.798 62.4951 -15.1729
RightForeArm  -28.9477 -4.25734 -5.16155
RightHand  -0.0701917 3.55006 -1.16801
LeftUpLeg  -26.2421 -3.66297 -5.40016
LeftLeg  6.88982 -13.5615 -1.69724
LeftFoot  7.5277 0.237399 -1.69538
LeftToes  -1.45701e-009 4.75788e-011 -4.21586e-011
342
root  65.1717 38.7703 8.75814 -164.893 -7.67881 169.952
RightUpLeg  -34.3005 -9.75745 -8.31067
RightLeg  16.9275 14.5773 4.62218
RightFoot  7.28122 0.179244 -0.788407
RightToes  1.33877e-009 0 -3.6325e-017
Spine  39.1821 -5.46799 9.73357
Spine1  -10.1379 -1.2742 -12.3938
HEad  -40.9543 -5.0753 1.64338
LeftShoulder1  1.36949 -0.984551 -24.2941
LeftArm  177.99 -72.4127 131.903
LeftForeArm  9.26996 0.0186894 -6.0259
LeftHand  0.0206964 6.02696 7.71545
RightShoulder  -0.354736 5.02016 -14.5032
RightArm  -59.024 61.92 -9.61097
RightForeArm  -24.7461 -2.23882 -5.79934
RightHand  -0.273555 3.67998 -3.71312
LeftUpLeg  -25.5805 -3.77589 -5.68965
LeftLeg  7.44586 -14.4837 -1.99181
LeftFoot  6.74965 0.42509 -2.96145
LeftToes  -1.45701e-009 4.75788e-011 -4.21586e-011
343
root  65.032 38.7674 8.73171 -166.041 -8.29356 169.619
RightUpLeg  -33.2136 -10.6387 -8.91628
RightLeg  17.8484 14.887 4.99343
RightFoot  6.75864 0.166181 -0.750821
RightToes  1.33877e-009 0 -3.6325e-017
Spine  38.5752 -4.86499 8.91901
Spine1  -10.0284 -1.41684 -9.56853
HEad  -39.3236 -4.79342 -0.206239
LeftShoulder1  1.29985 -0.692793 -24.7719
LeftArm  172.287 -77.8395 134.487
LeftForeArm  11.0619 -4.39385 -5.20251
LeftHand  -0.0419575 5.1475 8.34309
RightShoulder  -0.280786 4.39839 -13.7227
RightArm  -55.0241 61.408 -2.32496
RightForeArm  -17.6844 5.67433 -5.21152
RightHand  -0.596231 4.668 -7.23133
LeftUpLeg  -24.5955 -4.89276 -5.86161
LeftLeg  9.73324 -14.4571 -2.33364
LeftFoot  3.49405 0.664308 -5.30972
LeftToes  -1.45701e-009 4.75788e-011 -4.21586e-011
344
root  64.8587 38.7675 8.72213 -167.168 -8.91084 169.757
RightUpLeg  -32.1386 -11.2381 -9.1705
RightLeg  18.5795 14.9951 5.25535
RightFoot  6.47816 0.125023 -0.514154
RightToes  1.33877e-009 0 -3.6325e-017
Spine  37.1677 -5.38635 9.75987
Spine1  -9.39106 -1.78524 -10.2432
HEad  -37.5754 -4.45752 -0.255203
LeftShoulder1  1.37806 -1.0886 -23.7413
LeftArm  167.139 -84.4361 138.05
LeftForeArm  11.0376 -8.7338 -5.03857
LeftHand  -0.1065 4.40697 11.5655
RightShoulder  -0.00950329 3.65774 -9.92509
RightArm  -53.8088 59.9992 6.41438
RightForeArm  -7.22273 14.7851 -2.21459
RightHand  -0.827645 7.72525 -7.64468
LeftUpLeg  -23.7559 -7.34144 -5.21828
LeftLeg  13.7722 -11.5709 -2.52182
LeftFoot  -0.663301 0.552226 -5.6848
LeftToes  -1.45701e-009 4.75788e-011 -4.21586e-011
345
root  64.7239 38.8318 8.67928 -168.559 -9.15505 170.033
RightUpLeg  -30.4982 -11.3964 -9.31444
RightLeg  18.5798 15.0975 5.30062
RightFoot  6.64463 0.112794 -0.42449
RightToes  1.33877e-009 0 -3.6325e-017
Spine  35.8396 -4.91853 9.49461
Spine1  -8.73292 -1.54877 -8.79307
HEad  -35.5402 -4.43692 -2.01986
LeftShoulder1  1.44081 -1.29505 -23.7758
LeftArm  14.1908 -86.7204 -69.8443
LeftForeArm  10.7661 -13.3754 -4.79629
LeftHand  -0.248444 3.00987 11.6518
RightShoulder  0.142911 3.67519 -7.34063
RightArm  -54.9235 55.8117 16.3041
RightForeArm  9.30736 24.099 4.60862
RightHand  -1.15601 9.45923 -9.39755
LeftUpLeg  -22.17 -8.69638 -4.59316
LeftLeg  18.077 -7.73508 -2.49153
LeftFoot  -3.96933 0.204587 -2.93791
LeftToes  -1.45701e-009 4.75788e-011 -4.21586e-011
